<svg xmlns="http://www.w3.org/2000/svg" width="29.487" height="29.487" viewBox="0 0 29.487 29.487"><defs><style>.a{fill:none;}.b{fill:#ffc400;}</style></defs><g transform="translate(22.819 4.5)"><path class="a" d="M0,0H29.487V29.487H0Z" transform="translate(-22.819 -4.5)"/><path class="b" d="M24.115,13.829a2.464,2.464,0,0,1,2.457-2.457V6.457A2.464,2.464,0,0,0,24.115,4H4.457A2.454,2.454,0,0,0,2.012,6.457v4.915A2.457,2.457,0,0,1,2,16.286V21.2a2.464,2.464,0,0,0,2.457,2.457H24.115A2.464,2.464,0,0,0,26.573,21.2V16.286A2.464,2.464,0,0,1,24.115,13.829Zm-5.431,5.9-4.4-2.826-4.4,2.826,1.327-5.062L7.173,11.36l5.209-.307,1.9-4.841,1.892,4.853,5.209.307-4.042,3.305,1.339,5.05Z" transform="translate(-22.362 -3.585)"/></g></svg>