<svg xmlns="http://www.w3.org/2000/svg" width="24" height="24" viewBox="0 0 24 24">
    <path fill="#888" fill-rule="evenodd" d="M2 19.046l4.393-3.638 5.717 4.734.005-.004.016.013 5.712-4.73L22 18.863v3.573H2v-3.39zm19.064-7.85c-.002 0 .936 3.877.936 3.877v2.588l-3.431-2.841.002-.002-.726-.6-5.72 4.735-5.006-4.146.002-.001-.726-.601L2 17.845v-2.772l.937-3.878h7.435c.02-.413.042-.826.031-1.236-.046-.002-.095.012-.145.012-.012 0-.021 0-.027-.002-.075-.015-.113-.065-.151-.124-.103-.159-.086-.381-.031-.552.102-.322.275-.597.326-.934.05-.328-.019-.902.34-1.1.246-.137.617-.098.89-.076.352.03 1.056.038 1.144.455.025.12.027.245.014.367-.051.481-.444 1.198.027 1.596.184.156.477.154.597-.078.208-.403.005-.971-.12-1.372-.081-.259-.243-.768.125-.909.175-.066.28.102.294.243.09.935-.062 1.891-.062 2.83v.88h7.44zm-9.766-5.33c0 .229.039.443.122.616-.432-.462-.698-1.325-.167-2.075 1.064-1.5.593-2.407.593-2.407s1.478.978 1.64 2.59c.112 1.125-.315 1.763-.807 2.045.198-.198.337-.483.393-.769.125-.64-.333-1.238-.876-1.238-.543 0-.898.505-.898 1.238z"/>
</svg>
