<svg xmlns="http://www.w3.org/2000/svg" width="24" height="24" viewBox="0 0 24 24">
    <path fill="#888" fill-rule="evenodd" d="M8 20l1.028-8h5.945L16 20H8zm-3.078-3L5 11h3l-1.028 6h-2.05zM19 17h-2l-1-6h3v6zM13.33 4c.41.705.67 1.726.67 2.866 0 1.296-.334 2.44-.845 3.134h-2.311C10.334 9.306 10 8.162 10 6.866c0-1.14.26-2.161.67-2.866h2.66zM5.502 5h1.996C7.805 5.47 8 6.15 8 6.91c0 .865-.25 1.627-.633 2.09H5.633C5.251 8.537 5 7.775 5 6.91c0-.76.195-1.44.502-1.91zm11 0h1.996c.307.47.502 1.15.502 1.91 0 .865-.25 1.627-.633 2.09h-1.734C16.251 8.537 16 7.775 16 6.91c0-.76.195-1.44.502-1.91zM3 1v14.41S5.002 23 5 23h14l2-7.59V1H3z"/>
</svg>
